<!-- icon666.com - MILLIONS vector ICONS FREE --><svg viewBox="0 0 24 24" xmlns="http://www.w3.org/2000/svg" fill="#eeb035"><g id="_44_Tag_Place_Review" data-name="44 Tag, Place, Review"><path d="m7 22a1.09 1.09 0 0 1 -.39-.08 1 1 0 0 1 -.61-.92v-3h-2a3 3 0 0 1 -3-3v-10a3 3 0 0 1 3-3h16a3 3 0 0 1 3 3v10a3 3 0 0 1 -3 3h-8.51l-3.79 3.71a1 1 0 0 1 -.7.29zm-3-18a1 1 0 0 0 -1 1v10a1 1 0 0 0 1 1h3a1 1 0 0 1 1 1v1.62l2.38-2.33a1 1 0 0 1 .7-.29h8.92a1 1 0 0 0 1-1v-10a1 1 0 0 0 -1-1zm14 3h-12v2h12zm0 4h-12v2h12z"></path></g></svg>